<?xml version="1.0" standalone="no"?>
<!DOCTYPE svg PUBLIC "-//W3C//DTD SVG 20010904//EN"
 "http://www.w3.org/TR/2001/REC-SVG-20010904/DTD/svg10.dtd">
<svg version="1.0" xmlns="http://www.w3.org/2000/svg"
 width="700.000000pt" height="700.000000pt" viewBox="0 0 700.000000 700.000000"
 preserveAspectRatio="xMidYMid meet">
<metadata>
Created by potrace 1.14, written by Peter Selinger 2001-2017
</metadata>
<g transform="translate(0.000000,700.000000) scale(0.100000,-0.100000)"
fill="#000000" stroke="none">
<path d="M3413 6890 c-49 -10 -77 -24 -243 -120 -69 -40 -138 -80 -155 -90
-16 -9 -133 -77 -260 -150 -126 -73 -248 -143 -270 -155 -22 -13 -80 -47 -130
-76 -49 -28 -108 -62 -130 -74 -22 -13 -121 -70 -220 -127 -241 -140 -513
-297 -550 -318 -29 -17 -82 -47 -355 -205 -74 -43 -193 -112 -265 -153 -71
-41 -149 -88 -171 -103 -51 -35 -109 -111 -137 -182 l-21 -52 -2 -1565 c-1
-1698 -4 -1622 53 -1720 51 -88 84 -111 496 -349 23 -13 61 -34 84 -47 23 -13
150 -87 284 -164 133 -78 265 -154 293 -170 28 -15 119 -67 201 -115 83 -48
170 -99 194 -113 25 -14 68 -38 95 -55 28 -16 70 -40 93 -53 23 -13 140 -81
260 -150 120 -69 297 -171 393 -226 96 -56 186 -108 200 -117 14 -8 34 -21 45
-27 11 -6 58 -32 105 -59 47 -26 99 -55 115 -64 34 -18 146 -21 167 -4 7 6 54
33 103 61 115 63 107 59 450 257 378 219 578 333 810 467 105 61 219 127 255
148 36 20 108 62 160 93 184 106 405 234 450 259 129 72 491 285 528 310 67
46 134 149 150 232 8 41 8 3143 0 3178 -10 43 -43 110 -76 154 -37 51 -106 96
-397 264 -279 160 -247 141 -325 188 -37 21 -73 42 -80 46 -8 4 -24 12 -35 19
-11 7 -139 81 -285 165 -146 84 -272 158 -280 163 -46 27 -243 139 -247 139
-2 0 -16 8 -31 19 -15 10 -108 65 -207 121 -99 57 -206 118 -237 137 -32 19
-61 34 -65 34 -4 0 -15 6 -23 13 -8 7 -95 59 -193 115 -99 56 -193 111 -210
121 -18 11 -68 38 -112 60 -67 33 -92 41 -155 45 -41 2 -94 0 -117 -5z m-132
-1107 c0 -296 0 -551 -1 -567 l0 -28 -112 6 c-212 13 -253 15 -383 22 -71 3
-152 7 -180 9 -43 2 -211 11 -375 20 -25 1 -112 6 -195 10 -82 4 -170 9 -195
10 -25 2 -115 6 -200 10 -85 4 -156 8 -157 9 -3 2 203 126 287 173 19 11 123
71 230 133 107 62 213 123 235 135 22 13 123 71 225 130 292 169 498 288 548
316 26 15 97 56 157 91 61 36 111 64 113 63 2 -2 3 -245 3 -542z m580 465 c24
-14 132 -76 239 -138 319 -185 762 -441 810 -468 25 -14 158 -91 295 -171 138
-79 262 -151 277 -158 37 -19 44 -33 16 -32 -21 1 -185 -7 -323 -16 -33 -2
-118 -7 -190 -10 -71 -3 -159 -8 -195 -10 -36 -2 -123 -7 -195 -10 -71 -4
-157 -8 -190 -10 -33 -2 -116 -6 -185 -10 -69 -3 -156 -8 -195 -10 -38 -3
-123 -7 -187 -11 l-118 -6 0 44 c-1 63 -1 1006 0 1055 l0 42 48 -28 c26 -15
68 -39 93 -53z m-2564 -1393 c76 -3 167 -8 203 -10 36 -2 117 -7 180 -10 63
-3 151 -8 195 -10 44 -3 130 -7 190 -10 126 -7 229 -12 365 -20 52 -3 140 -7
195 -10 55 -2 145 -7 200 -10 55 -3 140 -7 189 -10 49 -2 91 -7 94 -9 3 -4
-738 -1200 -863 -1392 -11 -17 -56 -90 -100 -162 -44 -72 -83 -131 -86 -132
-6 0 -15 17 -126 230 -42 80 -79 150 -83 155 -4 6 -38 69 -75 140 -37 72 -85
162 -105 200 -20 39 -61 115 -90 170 -29 55 -69 132 -90 170 -20 39 -63 120
-95 180 -32 61 -70 133 -85 160 -15 28 -55 104 -90 170 -35 66 -74 139 -87
163 -25 47 -24 63 7 57 10 -2 81 -6 157 -10z m4574 -40 c-16 -27 -57 -104 -91
-170 -35 -66 -75 -142 -90 -170 -15 -27 -56 -104 -90 -170 -35 -66 -118 -223
-185 -350 -67 -126 -146 -275 -175 -330 -124 -237 -165 -314 -198 -375 -20
-36 -49 -91 -65 -123 -16 -31 -32 -55 -37 -52 -5 3 -79 119 -165 258 -86 138
-165 263 -174 277 -14 21 -352 561 -431 690 -71 115 -200 321 -241 384 -26 39
-46 72 -45 73 1 2 127 9 311 18 55 3 136 7 180 10 44 3 124 7 178 10 53 3 141
7 195 10 239 12 311 16 377 20 39 2 133 7 210 11 77 3 160 7 185 9 25 1 108 6
185 10 77 4 141 8 142 9 1 0 13 1 26 1 l26 0 -28 -50z m-2216 -515 c83 -132
155 -248 160 -258 11 -20 157 -253 220 -352 161 -253 517 -830 516 -837 -1 -9
-2101 -12 -2105 -3 -2 3 131 219 295 480 165 261 302 482 306 490 4 8 24 40
45 72 21 31 38 60 38 63 0 3 5 11 10 18 9 10 138 215 215 340 87 143 141 227
145 227 3 0 73 -108 155 -240z m-2655 -175 c29 -55 73 -138 98 -185 24 -47 61
-116 82 -155 63 -119 126 -236 172 -325 25 -47 76 -143 113 -215 38 -71 79
-147 92 -167 13 -21 23 -42 23 -47 0 -6 15 -36 33 -68 19 -32 57 -101 85 -154
l50 -97 -244 -136 c-135 -75 -249 -136 -255 -136 -5 0 -9 -4 -9 -10 0 -5 -4
-10 -9 -10 -5 0 -65 -31 -134 -70 -69 -38 -132 -73 -141 -76 -15 -6 -16 81
-16 977 0 540 2 980 4 978 1 -2 27 -49 56 -104z m5056 -1853 c-3 -2 -85 41
-183 96 -98 54 -209 116 -248 137 -38 21 -92 51 -120 67 -27 15 -96 53 -152
84 l-102 57 28 51 c15 28 56 105 91 171 34 66 75 143 90 170 15 28 53 100 85
160 87 165 179 339 347 655 57 107 117 221 133 252 l30 58 3 -977 c1 -537 0
-978 -2 -981z m-1503 128 c2 -3 -125 -211 -282 -462 -157 -252 -394 -631 -526
-843 -132 -211 -242 -385 -245 -385 -5 0 -1013 1610 -1042 1664 l-16 32 1053
-1 c579 0 1055 -2 1058 -5z m-2566 -103 c30 -46 96 -149 108 -169 12 -22 126
-204 170 -273 136 -212 574 -919 571 -922 -4 -4 -563 316 -608 348 -15 10 -29
19 -32 19 -3 0 -143 80 -313 178 -169 98 -397 229 -505 292 -109 63 -198 117
-198 121 0 4 64 42 143 85 78 42 158 86 177 97 19 11 58 32 85 48 28 15 122
68 210 118 88 49 162 90 165 90 3 1 15 -14 27 -32z m3094 9 c24 -13 181 -100
349 -193 168 -93 327 -181 353 -196 l49 -25 -119 -70 c-110 -64 -403 -234
-483 -280 -19 -10 -181 -104 -360 -207 -179 -104 -343 -198 -365 -211 -22 -12
-92 -52 -155 -89 -63 -37 -134 -78 -158 -91 l-43 -25 43 68 c199 317 356 567
368 588 26 42 334 533 362 577 15 24 31 50 35 58 13 24 74 120 77 120 2 0 23
-11 47 -24z"/>
</g>
</svg>
